# xmcd
#
# Track frame offsets:
#	150
#	28917
#	47997
#	70135
#	89837
#	104007
#	121437
#	157250
#	185002
#	208500
#	236165
#	253685
#	270770
#	283492
#	312105
#	328260
#
# Disc length: 4559 seconds
#
# Revision: 1
# Processed by: cddbd v1.4PL0 Copyright (c) Steve Scherf et al.
# Submitted via: audiograbber 1.81.03
#
DISCID=0311cd10
DTITLE=Bugs Henderson - Heartbroke Again
DYEAR=1998
DGENRE=Blues
TTITLE0=Dance Till the Moon Go Down
TTITLE1=She Thinks I Still Care
TTITLE2=Baby What You Want Me To Do
TTITLE3=Lost In Austin
TTITLE4=Heartbroke Again
TTITLE5=The Stumble
TTITLE6=Sweet And Mean
TTITLE7=Tore Down
TTITLE8=I'll Play American Music
TTITLE9=Suzie Q - My Babe
TTITLE10=Going Back To Louisiana
TTITLE11=Together Again
TTITLE12=Sweet Little Sixteen
TTITLE13=Rocket In My Pocket
TTITLE14=Nobody Business
TTITLE15=Shuffle King
EXTD=
EXTT0=
EXTT1=
EXTT2=
EXTT3=
EXTT4=
EXTT5=
EXTT6=
EXTT7=
EXTT8=
EXTT9=
EXTT10=
EXTT11=
EXTT12=
EXTT13=
EXTT14=
EXTT15=
PLAYORDER=
